:SAMPLES-PER-SECOND 30
:FULLY-SPECIFIED
:DEGREES
117
root  -52.3802 39.6492 -8.46412 -107.929 -85.3046 99.0252
RightUpLeg  -13.7662 -8.65705 -8.76645
RightLeg  -1.86811 -7.99945 3.43649
RightFoot  1.90748 -0.639781 5.69156
RightToes  1.74622e-010 0 -3.6325e-017
Spine  6.92512 -2.14249 -5.86837
Spine1  8.7958 -3.42331 2.71897
HEad  -11.021 4.47096 -1.8507
LeftShoulder1  7.44501 -11.7891 -42.2806
LeftArm  3.0703 0.616342 -23.6583
LeftForeArm  148.117 -79.6449 -121.373
LeftHand  -0.244104 0.0205437 5.32207
RightShoulder  4.96859 9.01779 33.7341
RightArm  9.78094 -30.0289 15.5548
RightForeArm  39.4184 69.4149 26.5204
RightHand  -0.0346905 -10.199 -0.481383
LeftUpLeg  15.8697 10.2055 -1.6166
LeftLeg  15.4481 8.41343 -1.05493
LeftFoot  -18.3669 0.131206 0.323029
LeftToes  -6.36679e-011 4.33698e-011 -8.22343e-012
118
root  -53.8312 39.2894 -8.72177 -98.959 -85.4782 89.9686
RightUpLeg  -14.8658 -9.73389 -8.42166
RightLeg  2.92929 -7.32375 2.96687
RightFoot  8.21869 -0.426642 2.87971
RightToes  1.74622e-010 0 -3.6325e-017
Spine  6.26332 -2.69661 -5.49512
Spine1  9.20252 -3.9806 2.65809
HEad  -11.1266 4.94822 -1.89756
LeftShoulder1  7.38435 -11.518 -42.721
LeftArm  3.31736 -0.609113 -23.4812
LeftForeArm  133.926 -80.9338 -104.844
LeftHand  -0.244104 0.0205437 5.32207
RightShoulder  4.65987 8.29509 33.5524
RightArm  7.57366 -30.2345 15.947
RightForeArm  33.932 65.9612 22.2664
RightHand  0.0111658 -10.1713 -1.54079
LeftUpLeg  17.8497 12.1863 -0.287951
LeftLeg  16.9932 5.36031 0.074076
LeftFoot  -20.8107 0.0228039 -1.13389
LeftToes  -6.36679e-011 4.33698e-011 -8.22343e-012
119
root  -55.247 39.0387 -8.88915 -118.541 -86.6349 109.205
RightUpLeg  -16.5802 -12.6742 -5.64947
RightLeg  9.02136 -3.1568 2.56127
RightFoot  13.8377 0.232363 -0.648494
RightToes  1.74622e-010 0 -3.6325e-017
Spine  6.1837 -3.09221 -1.42597
Spine1  9.56736 -3.6948 0.666185
HEad  -11.9955 5.39265 -2.93383
LeftShoulder1  7.78732 -11.5888 -44.9429
LeftArm  1.73901 0.424759 -22.6182
LeftForeArm  114.027 -81.2761 -80.9752
LeftHand  -0.244104 0.0205437 5.32207
RightShoulder  4.48705 7.71646 34.0427
RightArm  2.81321 -29.1054 18.3226
RightForeArm  28.455 60.2184 17.2522
RightHand  0.0674264 -9.28282 -3.3724
LeftUpLeg  19.1652 13.7413 2.30332
LeftLeg  20.3266 3.62396 1.6665
LeftFoot  -22.0667 -0.362092 -5.33674
LeftToes  -6.36679e-011 4.33698e-011 -8.22343e-012
120
root  -56.5603 38.9834 -9.05452 -170.63 -86.7461 161.415
RightUpLeg  -18.1183 -15.56 -1.38608
RightLeg  13.9767 2.50536 2.13127
RightFoot  14.2408 0.920145 -3.65878
RightToes  1.74622e-010 0 -3.6325e-017
Spine  6.27491 -3.04462 3.78063
Spine1  9.48971 -2.85689 -1.29595
HEad  -12.8199 5.89106 -4.82517
LeftShoulder1  8.5047 -11.8803 -48.2535
LeftArm  -1.46116 3.62148 -22.3578
LeftForeArm  89.3118 -79.2706 -51.8476
LeftHand  -0.244104 0.0205437 5.32207
RightShoulder  4.61792 7.69922 35.2467
RightArm  -4.40347 -27.3321 21.6247
RightForeArm  23.9211 52.0921 12.5637
RightHand  0.057659 -6.98251 -6.7687
LeftUpLeg  17.7828 13.2442 4.72059
LeftLeg  26.9408 5.25518 3.29406
LeftFoot  -19.0996 -0.57644 -10.4601
LeftToes  -6.36679e-011 4.33698e-011 -8.22343e-012
121
root  -57.6845 39.1152 -9.30317 162.327 -86.0022 -170.578
RightUpLeg  -18.5244 -16.0686 1.06506
RightLeg  16.4177 3.66311 2.05159
RightFoot  10.9921 1.13358 -5.33799
RightToes  1.74622e-010 0 -3.6325e-017
Spine  6.54005 -3.04716 6.17439
Spine1  8.34601 -2.76788 -0.700752
HEad  -13.0407 6.63183 -6.2346
LeftShoulder1  8.94032 -11.9547 -50.4817
LeftArm  -5.97712 7.95423 -24.5684
LeftForeArm  71.2465 -73.9171 -30.4461
LeftHand  -0.244104 0.0205437 5.32207
RightShoulder  4.94657 8.12512 36.5405
RightArm  -12.1202 -25.5236 25.1767
RightForeArm  16.0753 42.6065 9.2136
RightHand  -0.235419 -3.3436 -12.022
LeftUpLeg  12.2842 12.6673 6.47684
LeftLeg  37.2209 6.55515 5.70577
LeftFoot  -11.151 0.054965 -12.0958
LeftToes  -6.36679e-011 4.33698e-011 -8.22343e-012
122
root  -58.5943 39.2789 -9.572 135.126 -87.1183 -142.122
RightUpLeg  -18.1649 -16.0949 1.27168
RightLeg  17.1888 1.2268 2.44389
RightFoot  8.33746 1.04469 -5.67783
RightToes  1.74622e-010 0 -3.6325e-017
Spine  7.26573 -3.48663 6.25754
Spine1  6.52069 -3.52345 1.63209
HEad  -13.1236 6.84659 -6.2066
LeftShoulder1  8.92896 -11.836 -50.7966
LeftArm  -10.4113 11.5966 -28.4123
LeftForeArm  62.7565 -66.8414 -19.4532
LeftHand  -0.244104 0.0205437 5.32207
RightShoulder  5.15914 8.40044 37.3215
RightArm  -17.7324 -24.1034 29.0268
RightForeArm  1.45558 33.8178 7.4309
RightHand  -0.985299 1.08138 -17.7471
LeftUpLeg  3.93982 10.7978 6.97687
LeftLeg  48.5997 6.79906 8.61192
LeftFoot  -3.06799 0.677035 -9.15385
LeftToes  -6.36679e-011 4.33698e-011 -8.22343e-012
123
root  -59.3946 39.5119 -9.78411 84.0081 -88.0049 -90.1556
RightUpLeg  -16.9271 -14.9257 0.0625116
RightLeg  16.6939 -2.57059 3.22507
RightFoot  7.67516 1.00892 -5.70034
RightToes  1.74622e-010 0 -3.6325e-017
Spine  8.19157 -3.6547 6.73351
Spine1  5.33396 -3.675 2.5664
HEad  -14.083 5.47791 -5.16717
LeftShoulder1  8.87319 -11.8947 -50.295
LeftArm  -12.0872 13.1944 -31.0296
LeftForeArm  59.2232 -60.0045 -13.9571
LeftHand  -0.244104 0.0205437 5.32207
RightShoulder  5.16966 8.29827 37.7684
RightArm  -19.5116 -23.086 32.8066
RightForeArm  -14.2754 27.616 6.66657
RightHand  -1.71239 4.3138 -20.6947
LeftUpLeg  -3.75019 8.90713 6.5244
LeftLeg  57.1055 6.34588 10.941
LeftFoot  -0.404212 0.544702 -5.51283
LeftToes  -6.36679e-011 4.33698e-011 -8.22343e-012
124
root  -60.1891 39.8789 -9.96811 49.5093 -88.2907 -55.1695
RightUpLeg  -15.0334 -12.8248 -1.48657
RightLeg  15.0814 -5.22093 3.76566
RightFoot  7.42904 1.03815 -5.96406
RightToes  1.74622e-010 0 -3.6325e-017
Spine  8.46345 -2.84997 7.73408
Spine1  5.67029 -2.44752 1.1318
HEad  -15.9723 2.85602 -4.13108
LeftShoulder1  9.13392 -12.3006 -50.4427
LeftArm  -10.1489 13.1281 -30.6753
LeftForeArm  56.2119 -54.2827 -11.0111
LeftHand  -0.244104 0.0205437 5.32207
RightShoulder  5.30874 8.36622 38.6472
RightArm  -17.6205 -22.1671 35.2376
RightForeArm  -20.6911 24.3941 6.2005
RightHand  -1.55744 4.10592 -19.0184
LeftUpLeg  -9.25334 8.99035 5.29525
LeftLeg  61.0705 5.92828 12.0314
LeftFoot  -2.51549 0.332942 -4.16972
LeftToes  -6.36679e-011 4.33698e-011 -8.22343e-012
125
root  -60.9578 40.2445 -10.1477 47.818 -89.484 -52.9344
RightUpLeg  -13.3938 -11.0318 -2.75407
RightLeg  13.3382 -6.396 3.93155
RightFoot  6.78595 1.04466 -6.24578
RightToes  1.74622e-010 0 -3.6325e-017
Spine  8.32348 -1.61258 8.38125
Spine1  6.57598 -0.703648 -0.904058
HEad  -17.8536 0.616755 -3.31795
LeftShoulder1  9.40283 -12.6435 -50.8252
LeftArm  -7.22102 13.2075 -28.9372
LeftForeArm  52.1334 -50.2396 -9.54309
LeftHand  -0.244104 0.0205437 5.32207
RightShoulder  5.66841 8.88554 39.6333
RightArm  -14.0391 -21.1752 36.4084
RightForeArm  -15.0244 23.4448 5.74259
RightHand  -1.03269 2.53022 -15.3415
LeftUpLeg  -13.1976 10.807 3.77473
LeftLeg  60.7454 5.79696 11.6539
LeftFoot  -5.15766 0.305694 -5.08972
LeftToes  -6.36679e-011 4.33698e-011 -8.22343e-012
126
root  -61.6652 40.5067 -10.29 -83.6649 -89.294 79.1903
RightUpLeg  -12.2828 -9.96741 -3.61534
RightLeg  12.0382 -6.98641 4.06545
RightFoot  6.42588 1.03923 -6.35554
RightToes  1.74622e-010 0 -3.6325e-017
Spine  8.39695 -0.785822 8.62873
Spine1  6.82138 0.447882 -2.22268
HEad  -19.0235 -0.294829 -2.79669
LeftShoulder1  9.37367 -12.6352 -50.694
LeftArm  -6.12879 14.5421 -27.6847
LeftForeArm  48.1396 -47.6799 -8.83712
LeftHand  -0.244104 0.0205437 5.32207
RightShoulder  5.96299 9.39141 40.1005
RightArm  -10.3396 -19.9145 37.1804
RightForeArm  -6.4181 24.1698 5.49216
RightHand  -0.943152 2.32066 -14.3475
LeftUpLeg  -16.0282 12.9059 2.55412
LeftLeg  56.9221 6.25006 10.7237
LeftFoot  -6.38739 0.298653 -5.98687
LeftToes  -6.36679e-011 4.33698e-011 -8.22343e-012
127
root  -62.3087 40.7252 -10.3745 -107.521 -88.7789 103.598
RightUpLeg  -11.1815 -9.49697 -4.1044
RightLeg  10.6552 -7.09104 4.29637
RightFoot  6.53275 1.0669 -6.4879
RightToes  1.74622e-010 0 -3.6325e-017
Spine  8.63852 -0.419653 8.61343
Spine1  6.54174 0.896048 -2.78554
HEad  -19.6283 -0.330794 -2.83016
LeftShoulder1  9.27746 -12.5326 -50.4969
LeftArm  -6.93593 16.5947 -26.9617
LeftForeArm  45.0368 -45.4701 -8.26298
LeftHand  -0.244104 0.0205437 5.32207
RightShoulder  6.02258 9.50205 40.16
RightArm  -7.13747 -18.4458 37.6661
RightForeArm  -3.70602 26.4262 5.87505
RightHand  -1.05846 2.38089 -15.9449
LeftUpLeg  -17.2322 14.3779 1.7656
LeftLeg  49.7565 7.2823 9.55539
LeftFoot  -7.87259 0.229756 -6.03439
LeftToes  -6.36679e-011 4.33698e-011 -8.22343e-012
